<svg width="161" height="21" viewBox="0 0 161 21" fill="none" xmlns="http://www.w3.org/2000/svg">
<g clip-path="url(#clip0_8_459)">
<mask id="mask0_8_459" style="mask-type:luminance" maskUnits="userSpaceOnUse" x="0" y="4" width="21" height="13">
<path d="M20.6826 4.07617H0.682617V16.569H20.6826V4.07617Z" fill="white"/>
</mask>
<g mask="url(#mask0_8_459)">
<path fill-rule="evenodd" clip-rule="evenodd" d="M20.6433 15.9216C20.6433 16.2895 20.3429 16.59 19.9751 16.59H1.32745C0.959569 16.59 0.65918 16.2895 0.65918 15.9216V4.76537C0.65918 4.39742 0.959569 4.09692 1.32745 4.09692H19.9751C20.343 4.09692 20.6434 4.39742 20.6434 4.76537L20.6433 15.9216Z" fill="#14477C"/>
<path fill-rule="evenodd" clip-rule="evenodd" d="M13.0482 13.9276L13.2321 13.924L13.4163 13.9127L13.5964 13.8863L13.7729 13.8563L13.9456 13.8149L14.1182 13.7701L14.2834 13.7098L14.4487 13.6462L14.6061 13.5745L14.7601 13.4958L14.9104 13.4093L15.0569 13.3156L15.1995 13.2143L15.3347 13.1091L15.4622 12.9965L15.5896 12.8761L15.7062 12.7522L15.819 12.6208L15.9278 12.4855L16.0291 12.3468L16.1192 12.2003L16.2095 12.0502L16.2844 11.8962L16.3596 11.7348L16.4234 11.5732L16.4798 11.4043L16.5286 11.2352L16.5697 11.0626L16.6 10.8822L16.6225 10.7058L16.6373 10.5216L16.641 10.3379L16.6373 10.1537L16.6225 9.96966L16.6 9.79316L16.5697 9.61693L16.5286 9.44395L16.4798 9.27517L16.4234 9.10602L16.3596 8.94465L16.2844 8.78682L16.2095 8.63291L16.1192 8.48275L16.0291 8.33629L15.9278 8.19745L15.819 8.06224L15.7062 7.93086L15.5896 7.80693L15.4622 7.69045L15.3347 7.57781L15.1995 7.46904L15.0569 7.37126L14.9104 7.27732L14.7601 7.19112L14.6061 7.11207L14.4487 7.04074L14.2834 6.97711L14.1182 6.92069L13.9456 6.87192L13.7729 6.83061L13.5964 6.80059L13.4163 6.77802L13.2321 6.7629L13.0482 6.75928L12.8643 6.7629L12.6842 6.77802L12.5039 6.80059L12.3276 6.83061L12.1547 6.87192L11.9821 6.92069L11.8167 6.97711L11.6553 7.04074L11.4976 7.11207L11.3437 7.19112L11.1936 7.27732L11.0471 7.37126L10.9083 7.46904L10.7729 7.57781L10.6416 7.69045L10.5179 7.80693L10.3976 7.93086L10.2888 8.06224L10.1798 8.19745L10.0822 8.33629L9.98838 8.48275L9.90219 8.63291L9.82317 8.78682L9.75188 8.94465L9.68798 9.10602L9.63182 9.27517L9.58311 9.44395L9.5415 9.61693L9.51176 9.79316L9.48913 9.96966L9.47405 10.1537L9.47021 10.3379L9.47405 10.5216L9.48913 10.7058L9.51176 10.8822L9.5415 11.0626L9.58311 11.2352L9.63182 11.4043L9.68798 11.5732L9.75188 11.7348L9.82317 11.8962L9.90219 12.0502L9.98838 12.2003L10.0822 12.3468L10.1798 12.4855L10.2888 12.6208L10.3976 12.7522L10.5179 12.8761L10.6416 12.9965L10.7729 13.1091L10.9083 13.2143L11.0471 13.3156L11.1936 13.4093L11.3437 13.4958L11.4976 13.5745L11.6553 13.6462L11.8167 13.7098L11.9821 13.7701L12.1547 13.8149L12.3276 13.8563L12.5039 13.8863L12.6842 13.9127L12.8643 13.924L13.0482 13.9276Z" fill="#FBB230"/>
<path fill-rule="evenodd" clip-rule="evenodd" d="M8.25387 13.9276L8.43783 13.924L8.61788 13.9127L8.79828 13.8863L8.9745 13.8563L9.1474 13.8149L9.32029 13.7701L9.48528 13.7098L9.64659 13.6462L9.80442 13.5745L9.95828 13.4958L10.1084 13.4093L10.2548 13.3156L10.3936 13.2143L10.5291 13.1091L10.6605 12.9965L10.7841 12.8761L10.9044 12.7522L11.0134 12.6208L11.1222 12.4855L11.2197 12.3468L11.3136 12.2003L11.3998 12.0502L11.4788 11.8962L11.5501 11.7348L11.614 11.5732L11.6701 11.4043L11.7191 11.2352L11.7605 11.0626L11.7903 10.8822L11.8128 10.7058L11.828 10.5216L11.8318 10.3379L11.828 10.1537L11.8128 9.96966L11.7903 9.79316L11.7605 9.61693L11.7191 9.44395L11.6701 9.27517L11.614 9.10602L11.5501 8.94465L11.4788 8.78682L11.3998 8.63291L11.3136 8.48275L11.2197 8.33629L11.1222 8.19745L11.0134 8.06224L10.9044 7.93086L10.7841 7.80693L10.6605 7.69045L10.5291 7.57781L10.3936 7.46904L10.2548 7.37126L10.1084 7.27732L9.95828 7.19112L9.80442 7.11207L9.64659 7.04074L9.48528 6.97711L9.32029 6.92069L9.1474 6.87192L8.9745 6.83061L8.79828 6.80059L8.61788 6.77802L8.43783 6.7629L8.25387 6.75928L8.06998 6.7629L7.88579 6.77802L7.70568 6.80059L7.52923 6.83061L7.35679 6.87192L7.1839 6.92069L7.01869 6.97711L6.85347 7.04074L6.69593 7.11207L6.54207 7.19112L6.39169 7.27732L6.24552 7.37126L6.10283 7.46904L5.96744 7.57781L5.83992 7.69045L5.71239 7.80693L5.59594 7.93086L5.48303 8.06224L5.37432 8.19745L5.27298 8.33629L5.18289 8.48275L5.09263 8.63291L5.01768 8.78682L4.94254 8.94465L4.87867 9.10602L4.82251 9.27517L4.77346 9.44395L4.73607 9.61693L4.70214 9.79316L4.67987 9.96966L4.66471 10.1537L4.66113 10.3379L4.66471 10.5216L4.67987 10.7058L4.70214 10.8822L4.73607 11.0626L4.77346 11.2352L4.82251 11.4043L4.87867 11.5732L4.94254 11.7348L5.01768 11.8962L5.09263 12.0502L5.18289 12.2003L5.27298 12.3468L5.37432 12.4855L5.48303 12.6208L5.59594 12.7522L5.71239 12.8761L5.83992 12.9965L5.96744 13.1091L6.10283 13.2143L6.24552 13.3156L6.39169 13.4093L6.54207 13.4958L6.69593 13.5745L6.85347 13.6462L7.01869 13.7098L7.1839 13.7701L7.35679 13.8149L7.52923 13.8563L7.70568 13.8863L7.88579 13.9127L8.06998 13.924L8.25387 13.9276Z" fill="#EB2230"/>
<path fill-rule="evenodd" clip-rule="evenodd" d="M10.2324 8.13354H12.1361V7.93823H10.3976L10.2324 8.13354Z" fill="#FBB230"/>
<path fill-rule="evenodd" clip-rule="evenodd" d="M9.94775 8.56542H12.1367V8.37012H10.0604L9.94775 8.56542Z" fill="#FBB230"/>
<path fill-rule="evenodd" clip-rule="evenodd" d="M9.7334 8.99755H12.1363V8.80225H9.81982L9.7334 8.99755Z" fill="#FBB230"/>
<path fill-rule="evenodd" clip-rule="evenodd" d="M9.58691 9.42898H12.1363V9.23755H9.64691L9.58691 9.42898Z" fill="#FBB230"/>
<path fill-rule="evenodd" clip-rule="evenodd" d="M9.67256 11.5246H12.1431V11.3293H9.61279L9.67256 11.5246Z" fill="#FBB230"/>
<path fill-rule="evenodd" clip-rule="evenodd" d="M9.85321 11.9565H12.1434V11.7612H9.76318L9.85321 11.9565Z" fill="#FBB230"/>
<path fill-rule="evenodd" clip-rule="evenodd" d="M10.1122 12.3882H12.1433V12.1929H9.98828L10.1122 12.3882Z" fill="#FBB230"/>
<path fill-rule="evenodd" clip-rule="evenodd" d="M10.4656 12.8201H12.1437V12.6248H10.293L10.4656 12.8201Z" fill="#FBB230"/>
<path fill-rule="evenodd" clip-rule="evenodd" d="M9.50049 9.86104H12.136V9.66943H9.53797L9.50049 9.86104Z" fill="#FBB230"/>
<path fill-rule="evenodd" clip-rule="evenodd" d="M11.1069 11.0927H12.1132V10.8975H11.1446L11.1069 11.0927Z" fill="#FBB230"/>
<path fill-rule="evenodd" clip-rule="evenodd" d="M11.186 10.6606H12.1135V10.4653H11.2237L11.186 10.6606Z" fill="#FBB230"/>
<path fill-rule="evenodd" clip-rule="evenodd" d="M9.43311 10.4653H9.69586V10.6606H9.44835L9.43311 10.4653Z" fill="#FBB230"/>
<path fill-rule="evenodd" clip-rule="evenodd" d="M16.2962 12.3579C16.3901 12.3579 16.4653 12.4366 16.4653 12.5267C16.4653 12.6207 16.3901 12.6958 16.2962 12.6958C16.2023 12.6958 16.1274 12.6207 16.1274 12.5267C16.1274 12.4366 16.2023 12.3579 16.2962 12.3579ZM16.2962 12.3879C16.3752 12.3879 16.4388 12.4518 16.4388 12.5267C16.4388 12.6058 16.3753 12.6696 16.2962 12.6696C16.2213 12.6696 16.1571 12.6058 16.1571 12.5267C16.1571 12.4518 16.2213 12.3879 16.2962 12.3879Z" fill="#FBB230"/>
<path d="M16.2324 12.6021V12.4595H16.2924C16.3073 12.4595 16.3186 12.4595 16.3262 12.4633C16.3335 12.4669 16.3375 12.4708 16.3411 12.4744C16.3447 12.4821 16.3485 12.4895 16.3485 12.497C16.3485 12.5082 16.3447 12.5195 16.3411 12.5234C16.3334 12.5308 16.3224 12.5347 16.3108 12.5382C16.3186 12.5421 16.3223 12.5459 16.3262 12.5495C16.3298 12.5533 16.3375 12.5608 16.3411 12.5721L16.3598 12.6021H16.3262L16.3034 12.5682C16.2994 12.557 16.2922 12.5534 16.2885 12.5496C16.2885 12.5459 16.2846 12.5459 16.281 12.5421C16.2772 12.5421 16.2733 12.5421 16.2659 12.5421H16.262V12.6021H16.2324ZM16.2622 12.5195H16.2811C16.296 12.5195 16.3035 12.5195 16.3073 12.5159C16.3109 12.5159 16.3151 12.5159 16.3151 12.512C16.3186 12.5082 16.3186 12.5046 16.3186 12.5007C16.3186 12.4969 16.3186 12.4933 16.3151 12.4895C16.3109 12.4855 16.3073 12.4855 16.3035 12.482C16.3035 12.482 16.296 12.482 16.2847 12.482H16.2622V12.5195H16.2622Z" fill="#FBB230"/>
<path fill-rule="evenodd" clip-rule="evenodd" d="M16.2581 10.9463C16.352 10.9463 16.4269 11.0214 16.4269 11.1154C16.4269 11.2093 16.352 11.2842 16.2581 11.2842C16.1643 11.2842 16.0894 11.2093 16.0894 11.1154C16.0894 11.0214 16.1643 10.9463 16.2581 10.9463ZM16.2581 10.9763C16.3371 10.9763 16.4008 11.0401 16.4008 11.1153C16.4008 11.1941 16.3372 11.258 16.2581 11.258C16.1792 11.258 16.1155 11.1941 16.1155 11.1153C16.1155 11.0402 16.1791 10.9763 16.2581 10.9763Z" fill="white"/>
<path d="M16.1943 11.1865V11.0474H16.2544C16.2695 11.0474 16.2808 11.0474 16.2883 11.0512C16.292 11.0512 16.2992 11.0587 16.3031 11.0625C16.3069 11.0699 16.3105 11.0774 16.3105 11.0851C16.3105 11.0964 16.3069 11.1038 16.2992 11.1112C16.2957 11.1187 16.2844 11.1225 16.2731 11.1264C16.277 11.1299 16.2844 11.1338 16.2883 11.1377C16.292 11.1412 16.2957 11.1487 16.3031 11.16L16.3221 11.1865H16.2882L16.2656 11.1564C16.2581 11.1451 16.2543 11.1377 16.2505 11.1377C16.2469 11.1338 16.2469 11.1299 16.2433 11.1299C16.2391 11.1299 16.2356 11.1299 16.2281 11.1299H16.2207V11.1864L16.1943 11.1865ZM16.2208 11.1077H16.2433C16.2582 11.1077 16.2656 11.1077 16.2695 11.1039C16.2731 11.1039 16.277 11.1 16.277 11.1C16.2808 11.0964 16.2808 11.0925 16.2808 11.0887C16.2808 11.0851 16.277 11.0774 16.277 11.0774C16.2731 11.0738 16.2695 11.0699 16.2657 11.0699C16.2619 11.0699 16.2544 11.0699 16.2433 11.0699H16.2208L16.2208 11.1077Z" fill="white"/>
<path fill-rule="evenodd" clip-rule="evenodd" d="M13.8447 11.2125L14.0887 9.93604H14.3927L14.4304 10.0674C14.4866 10.0109 14.5804 9.93604 14.7682 9.93604L14.6744 10.274C14.5918 10.274 14.464 10.2588 14.3591 10.5066C14.2803 10.6945 14.2426 11.006 14.2013 11.2125H13.8447Z" fill="white"/>
<path fill-rule="evenodd" clip-rule="evenodd" d="M9.2414 9.61694H9.57899L9.50403 9.95483H9.69183L9.63544 10.2176H9.46661L9.37269 10.7246C9.354 10.8186 9.37269 10.9125 9.56048 10.8747L9.52306 11.1565C9.32036 11.3104 8.91458 11.1978 8.97842 10.8186L9.2414 9.61694Z" fill="white"/>
<path fill-rule="evenodd" clip-rule="evenodd" d="M10.7472 10.6493C10.7847 10.4428 10.8786 9.93604 10.2742 9.93604C9.71116 9.93604 9.63598 10.4992 9.63598 10.5741C9.61747 10.6493 9.61747 11.2125 10.218 11.2125C10.3681 11.2125 10.5784 11.1938 10.6723 11.1563L10.7285 10.8933C10.6723 10.9123 10.4807 10.931 10.3306 10.931C10.1993 10.931 9.97408 10.931 10.0115 10.6493L10.7472 10.6493Z" fill="white"/>
<path fill-rule="evenodd" clip-rule="evenodd" d="M6.65096 11.2126L6.95136 9.6731H6.36567L5.95262 10.6119L5.87747 9.6731H5.33314L5.03271 11.2126H5.37058L5.59607 10.105L5.68995 11.2126H6.00908L6.49704 10.1237L6.29048 11.2126H6.65096Z" fill="white"/>
<path fill-rule="evenodd" clip-rule="evenodd" d="M7.04466 9.97356L6.98844 10.2553C7.08236 10.2553 7.30752 10.2176 7.42013 10.2176C7.53279 10.2176 7.68288 10.1989 7.62672 10.3867C7.53279 10.3867 6.9132 10.2928 6.81933 10.8373C6.76701 11.1977 7.19491 11.3292 7.45761 11.1565L7.49526 11.2314H7.81417L7.94575 10.5368C8.0846 9.90966 7.48024 9.89837 7.04466 9.97356Z" fill="white"/>
<path fill-rule="evenodd" clip-rule="evenodd" d="M12.6352 10.0863C12.5488 10.0336 12.4962 10.0336 12.3874 10.0336C12.2823 10.0336 12.0344 10.1389 12.0006 10.4204C11.948 10.7734 12.1771 10.9312 12.5111 10.826L12.6014 11.1265C12.0308 11.4118 11.4861 10.9687 11.6665 10.2777C11.8127 9.75578 12.5037 9.44046 12.8492 9.87227L12.6352 10.0863Z" fill="white"/>
<path fill-rule="evenodd" clip-rule="evenodd" d="M15.6123 10.0864C14.6924 9.39538 14.3356 11.2128 15.049 11.2128C15.1616 11.2128 15.2745 11.1566 15.3494 11.1189L15.3868 11.2128H15.7624L16.0629 9.59814H15.7061L15.6123 10.0864Z" fill="white"/>
<path fill-rule="evenodd" clip-rule="evenodd" d="M12.9055 9.97356L12.8493 10.2553C12.9429 10.2553 13.1684 10.2176 13.2808 10.2176C13.3937 10.2176 13.525 10.1989 13.4875 10.3867C13.3937 10.3867 12.7742 10.2928 12.6805 10.8373C12.6425 11.1 12.868 11.2314 13.0371 11.2314C13.2058 11.2314 13.2622 11.194 13.3185 11.1565L13.3559 11.2314H13.6753L13.8066 10.5368C13.9494 9.90966 13.3447 9.89837 12.9055 9.97356Z" fill="white"/>
<path fill-rule="evenodd" clip-rule="evenodd" d="M10.0112 10.4055H10.443C10.4917 10.0637 10.0825 10.1314 10.0112 10.4055Z" fill="#EB2230"/>
<path fill-rule="evenodd" clip-rule="evenodd" d="M7.57104 10.6495C7.51459 10.6495 7.38324 10.612 7.27035 10.6872C7.15803 10.7621 7.12032 10.8935 7.25184 10.9312C7.36422 10.9686 7.51459 10.8935 7.55201 10.7808L7.57104 10.6495Z" fill="#EB2230"/>
<path fill-rule="evenodd" clip-rule="evenodd" d="M15.4437 10.2929C15.3311 10.1425 15.0872 10.2555 15.012 10.5369C14.9558 10.7247 15.0684 10.8561 15.181 10.8561C15.4176 10.8561 15.5602 10.4694 15.4437 10.2929Z" fill="#FBB230"/>
<path fill-rule="evenodd" clip-rule="evenodd" d="M13.4506 10.6495C13.3945 10.6495 13.2631 10.612 13.1502 10.6872C13.0379 10.7621 13.0002 10.8935 13.1318 10.9312C13.2441 10.9686 13.4133 10.8935 13.4319 10.7808L13.4506 10.6495Z" fill="#FBB230"/>
<path fill-rule="evenodd" clip-rule="evenodd" d="M10.7471 11.2314L10.7661 11.1L10.9913 9.95483H11.2915L11.3289 10.0862C11.3854 10.0298 11.4793 9.95483 11.667 9.95483L11.5731 10.2928C11.5018 10.2928 11.3515 10.2776 11.2389 10.5781C11.175 10.7508 11.1375 11.0438 11.1037 11.2314H10.7471Z" fill="white"/>
<path fill-rule="evenodd" clip-rule="evenodd" d="M8.93003 10.2629H8.91484H8.9L8.88516 10.2591L8.87003 10.2555H8.8549L8.84 10.2516C8.77232 10.2442 8.7161 10.2403 8.64865 10.2442C8.47576 10.259 8.40086 10.3678 8.54711 10.4504C8.66355 10.5182 8.75381 10.5068 8.83232 10.5821C9.00143 10.7396 8.91496 11.0439 8.72716 11.1602L8.69358 11.1753L8.6561 11.1904L8.61484 11.2014L8.57742 11.2127C8.39708 11.2427 8.15312 11.2353 7.97656 11.1753L8.02533 10.9235C8.16797 10.9536 8.40092 11.0175 8.50969 10.9426C8.63364 10.8599 8.52098 10.7622 8.43066 10.7209L8.38579 10.706L8.34092 10.6873C7.98407 10.5256 8.06693 10.0937 8.40453 10.0037C8.53971 9.97369 8.6749 9.97369 8.81393 9.98498H8.84006C8.87398 9.98859 8.90401 9.99249 8.93398 9.99988H8.94888L8.96017 10.0037H8.97146L8.97885 10.0076H8.99014L8.93003 10.2629Z" fill="white"/>
</g>
</g>
<g clip-path="url(#clip1_8_459)">
<path d="M38.6821 20.8511C44.205 20.8511 48.6821 16.3739 48.6821 10.8511C48.6821 5.32823 44.205 0.851074 38.6821 0.851074C33.1593 0.851074 28.6821 5.32823 28.6821 10.8511C28.6821 16.3739 33.1593 20.8511 38.6821 20.8511Z" fill="#26A17B"/>
<path d="M44.1478 8.51732C43.6484 8.16295 43.114 7.78482 42.5915 7.40982C42.5796 7.40107 42.5684 7.39232 42.554 7.38357C42.4928 7.3333 42.4235 7.29378 42.349 7.2667L42.3428 7.26357C40.9447 6.9205 39.547 6.57592 38.1496 6.22982L34.4096 5.3067L34.3115 5.28045C34.199 5.24857 34.069 5.21295 33.9303 5.23045C33.8922 5.23627 33.856 5.25035 33.824 5.2717L33.789 5.30107C33.7452 5.34601 33.7117 5.39998 33.6909 5.4592L33.6821 5.48295V5.61732L33.6884 5.63795C34.4759 7.87857 35.2846 10.1517 36.0646 12.3511C36.6653 14.0448 37.2896 15.7986 37.8984 17.5211C37.9359 17.6379 38.0428 17.7148 38.1759 17.7261H38.2046C38.2628 17.7276 38.3203 17.7134 38.3711 17.685C38.4219 17.6566 38.4641 17.6151 38.4934 17.5648L40.7809 14.1817C41.3378 13.3586 41.8953 12.5329 42.4528 11.7098L43.1371 10.6961C43.5121 10.1398 43.8996 9.56545 44.284 9.00607L44.304 8.97732V8.9417C44.3128 8.8392 44.3153 8.6292 44.1478 8.51732ZM41.4678 9.75045C40.9303 10.0342 40.3821 10.3273 39.8303 10.6173L40.7953 9.56857C41.1965 9.1292 41.6153 8.67482 42.0253 8.22982L42.034 8.22107C42.0684 8.1742 42.1121 8.13045 42.1584 8.08357C42.1896 8.0517 42.2246 8.0192 42.2565 7.98107C42.4703 8.13107 42.6865 8.28295 42.8946 8.43232C43.0446 8.54045 43.1978 8.6492 43.354 8.75732C42.7231 9.08419 42.0943 9.41524 41.4678 9.75045ZM40.0878 9.60982C39.6746 10.0636 39.2471 10.5292 38.8228 10.9892C37.9991 9.97576 37.1731 8.9643 36.3446 7.95482L35.2328 6.59857L35.2303 6.59545C35.1465 6.4992 35.0653 6.39357 34.9846 6.2942C34.9328 6.2267 34.8778 6.16232 34.8228 6.09482C35.1578 6.18232 35.4959 6.26482 35.8278 6.34357C36.1196 6.4142 36.4228 6.48732 36.7203 6.56357L41.7484 7.80232C41.1909 8.40607 40.6303 9.01795 40.0878 9.60982ZM38.6346 15.3186C38.6665 15.0111 38.7015 14.6948 38.7303 14.3842C38.7565 14.1348 38.7821 13.8804 38.8084 13.6373C38.8484 13.2473 38.8921 12.8436 38.9271 12.4479L38.9353 12.3779C38.964 12.1254 38.9928 11.8654 39.0103 11.6042C39.0439 11.5852 39.0788 11.5685 39.1146 11.5542C39.1578 11.5342 39.2009 11.5167 39.244 11.4904C39.9111 11.1349 40.5792 10.7814 41.2484 10.4298C41.9159 10.0786 42.6003 9.71482 43.279 9.35482C42.6631 10.2594 42.0498 11.1656 41.439 12.0736C40.9221 12.8373 40.3909 13.6254 39.8621 14.4017C39.6546 14.7123 39.4378 15.0286 39.2328 15.3329C39.0015 15.6729 38.7646 16.0211 38.534 16.3704C38.5628 16.0186 38.5971 15.6642 38.6346 15.3186ZM34.6096 6.78607C34.5721 6.68045 34.5309 6.57232 34.4965 6.46982C35.2765 7.42482 36.0615 8.38545 36.8271 9.3167C37.2228 9.79982 37.6184 10.2804 38.014 10.7667C38.0921 10.8573 38.1703 10.9542 38.2453 11.0479C38.3434 11.1679 38.4415 11.2942 38.5484 11.4142C38.5134 11.7154 38.4846 12.0204 38.4528 12.3129C38.4328 12.5179 38.4128 12.7236 38.3896 12.9317V12.9342C38.3809 13.0654 38.3634 13.1979 38.349 13.3267L38.2828 13.9098L38.2796 13.9298C38.2278 14.5217 38.164 15.1192 38.1034 15.6992C38.0778 15.9392 38.0546 16.1854 38.0284 16.4317C38.014 16.3879 37.9971 16.3436 37.9821 16.3023C37.9381 16.1829 37.8958 16.0629 37.8553 15.9423L37.5459 15.0723L34.609 6.78607" fill="white"/>
</g>
<g clip-path="url(#clip2_8_459)">
<path d="M66.6819 20.8511C72.2047 20.8511 76.6819 16.3739 76.6819 10.8511C76.6819 5.32824 72.2047 0.851074 66.6819 0.851074C61.1591 0.851074 56.6819 5.32824 56.6819 10.8511C56.6819 16.3739 61.1591 20.8511 66.6819 20.8511Z" fill="#8DC351"/>
<path d="M71.3651 9.1576C70.8918 8.9176 70.3218 8.8676 69.6618 9.01093C70.2318 8.2676 70.2518 7.45426 69.7218 6.5776C69.5318 6.2576 69.3018 6.01093 69.0285 5.84093C68.7551 5.6676 68.4551 5.57093 68.1185 5.5476C67.7851 5.52426 67.4418 5.5476 67.0985 5.61426C66.7518 5.68426 66.3718 5.79426 65.9551 5.95093L65.0418 4.0376L63.8718 4.59426L64.7585 6.45426C64.5551 6.55093 64.2485 6.70426 63.8385 6.91093L62.9451 5.03426L61.7751 5.59093L62.6885 7.50426C62.5251 7.5876 62.2785 7.7076 61.9551 7.86426L60.3418 8.62426L60.9351 9.87093L61.7785 9.4676C62.1618 9.28426 62.4718 9.3476 62.7018 9.66093L63.7418 11.8409C63.7918 11.8176 63.8351 11.8009 63.8685 11.7909L63.7485 11.8476L65.2051 14.9009C65.2885 15.1776 65.2018 15.3776 64.9485 15.4976L64.1051 15.9009L64.5318 17.4043L66.0518 16.6809C66.1485 16.6343 66.2885 16.5709 66.4718 16.4843C66.6551 16.4009 66.7918 16.3376 66.8851 16.2909L67.8085 18.2276L68.9785 17.6709L68.0651 15.7576C68.2818 15.6609 68.5918 15.5176 68.9951 15.3243L69.9051 17.2309L71.0751 16.6743L70.1518 14.7376C70.5585 14.5209 70.9085 14.3043 71.2018 14.0976C71.4951 13.8876 71.7618 13.6543 71.9985 13.3943C72.2351 13.1343 72.4085 12.8709 72.5218 12.5976C72.6351 12.3276 72.6918 12.0243 72.6885 11.6876C72.6885 11.3543 72.6185 10.9976 72.4818 10.6209C72.2118 9.88426 71.8418 9.39426 71.3651 9.1576ZM64.5185 8.26426C64.5551 8.2476 64.6518 8.1976 64.8151 8.1176C64.9785 8.0376 65.1151 7.9676 65.2218 7.91426C65.3285 7.86093 65.4785 7.7976 65.6718 7.72426C65.8651 7.65093 66.0285 7.5976 66.1685 7.56093C66.3085 7.52426 66.4651 7.50093 66.6451 7.4876C66.8251 7.47426 66.9785 7.4876 67.1118 7.5276C67.2418 7.5676 67.3718 7.6376 67.4951 7.7376C67.6185 7.8376 67.7218 7.97093 67.8018 8.1376C67.8685 8.28093 67.9085 8.42093 67.9185 8.5576C67.9285 8.69426 67.9051 8.82426 67.8518 8.9476C67.7985 9.07093 67.7385 9.18426 67.6685 9.2876C67.5985 9.39093 67.4985 9.4976 67.3685 9.60426C67.2351 9.71093 67.1185 9.80093 67.0185 9.87426C66.9151 9.9476 66.7851 10.0276 66.6218 10.1143C66.4585 10.2009 66.3351 10.2676 66.2485 10.3109C66.1651 10.3543 66.0451 10.4109 65.8951 10.4809C65.7451 10.5509 65.6551 10.5909 65.6318 10.6009L64.5185 8.26426ZM70.1785 11.9143C70.1851 12.0543 70.1718 12.1843 70.1385 12.3076C70.1018 12.4309 70.0385 12.5543 69.9485 12.6776C69.8551 12.8043 69.7618 12.9143 69.6651 13.0076C69.5685 13.1043 69.4451 13.2076 69.2951 13.3143C69.1451 13.4243 69.0118 13.5143 68.8918 13.5843C68.7751 13.6576 68.6318 13.7376 68.4618 13.8276C68.2918 13.9176 68.1618 13.9843 68.0651 14.0309C67.9685 14.0776 67.8451 14.1343 67.6985 14.2009C67.5518 14.2676 67.4551 14.3109 67.4151 14.3309L66.1918 11.7643C66.2318 11.7443 66.3518 11.6843 66.5485 11.5843C66.7451 11.4843 66.9085 11.4043 67.0351 11.3443C67.1618 11.2843 67.3385 11.2076 67.5685 11.1176C67.7985 11.0276 67.9951 10.9609 68.1618 10.9176C68.3285 10.8743 68.5151 10.8443 68.7251 10.8209C68.9351 10.7976 69.1185 10.8076 69.2718 10.8443C69.4251 10.8809 69.5751 10.9543 69.7185 11.0609C69.8618 11.1676 69.9785 11.3109 70.0651 11.4909C70.1351 11.6343 70.1718 11.7743 70.1785 11.9143Z" fill="white"/>
</g>
<g clip-path="url(#clip3_8_459)">
<path d="M94.6819 20.8511C100.205 20.8511 104.682 16.3739 104.682 10.8511C104.682 5.32823 100.205 0.851074 94.6819 0.851074C89.159 0.851074 84.6819 5.32823 84.6819 10.8511C84.6819 16.3739 89.159 20.8511 94.6819 20.8511Z" fill="#EB0029"/>
<path fill-rule="evenodd" clip-rule="evenodd" d="M90.1609 6.20896C90.2525 6.45252 94.1201 16.1544 94.1292 16.1636C94.1397 16.1741 99.6679 9.46829 99.6819 9.42815C99.6888 9.40807 97.7604 7.57813 97.7096 7.55657C97.6882 7.54751 95.9913 7.23252 93.9387 6.8566C91.8861 6.48068 90.1921 6.16974 90.1743 6.16565C90.1467 6.15931 90.1447 6.16582 90.1609 6.20896ZM94.3003 7.45723C95.7881 7.73004 97.0053 7.95909 97.0053 7.96623C97.0053 7.97942 94.9879 9.65854 94.9249 9.69781C94.8955 9.71615 94.6585 9.52727 93.243 8.35712C91.3688 6.80779 91.5533 6.96234 91.577 6.96168C91.5871 6.96141 92.8126 7.1844 94.3003 7.45723ZM92.9395 8.78726C94.1594 9.79734 94.6651 10.2272 94.6602 10.2499C94.6565 10.2675 94.5354 11.2648 94.3912 12.4661C94.247 13.6675 94.1248 14.6632 94.1196 14.6789C94.1144 14.6945 93.4545 13.0621 92.6532 11.0513C91.8519 9.04043 91.1914 7.38318 91.1854 7.36851C91.1795 7.35382 91.183 7.34517 91.1932 7.34926C91.2035 7.35334 91.9894 8.00045 92.9395 8.78726ZM98.1881 8.71642C98.5031 9.01445 98.7575 9.26154 98.7535 9.26557C98.7409 9.2782 95.6662 9.83054 95.6386 9.82515C95.6151 9.82057 97.5747 8.17459 97.6036 8.17459C97.6101 8.17459 97.8731 8.41842 98.1881 8.71642ZM98.6422 9.86812C98.5522 9.9991 94.6611 14.7089 94.6575 14.6913C94.655 14.6794 94.7681 13.7214 94.9088 12.5624L95.1645 10.4551L96.8709 10.1441C97.8093 9.97312 98.5978 9.8324 98.6229 9.83142C98.6647 9.82977 98.6664 9.83296 98.6422 9.86812Z" fill="white"/>
</g>
<g clip-path="url(#clip4_8_459)">
<path d="M122.682 20.8511C128.205 20.8511 132.682 16.3739 132.682 10.8511C132.682 5.32824 128.205 0.851074 122.682 0.851074C117.159 0.851074 112.682 5.32824 112.682 10.8511C112.682 16.3739 117.159 20.8511 122.682 20.8511Z" fill="url(#paint0_linear_8_459)"/>
<path d="M122.682 12.971L118.845 11.1477L122.682 17.851L126.518 11.1477L122.682 12.971Z" fill="white"/>
<path d="M126.099 9.78774L122.682 3.85107L119.259 9.79441L122.682 8.17107L126.099 9.78774Z" fill="white"/>
<path d="M119.555 10.5644L122.681 12.0444L125.811 10.5611L122.681 9.08105L119.555 10.5644Z" fill="white"/>
</g>
<g clip-path="url(#clip5_8_459)">
<path d="M150.651 0.893066L153.111 3.41218L146.917 9.60625L144.457 7.1464L150.651 0.893066Z" fill="#F0B90B" stroke="#F0B90B" stroke-width="0.0592733"/>
<path d="M154.385 4.62744L156.845 7.14656L146.917 17.0748L144.457 14.615L154.385 4.62744Z" fill="#F0B90B" stroke="#F0B90B" stroke-width="0.0592733"/>
<path d="M143.183 8.36182L145.643 10.8809L143.183 13.3408L140.723 10.8809L143.183 8.36182Z" fill="#F0B90B" stroke="#F0B90B" stroke-width="0.0592733"/>
<path d="M158.119 8.36182L160.579 10.8809L150.651 20.8092L148.191 18.3494L158.119 8.36182Z" fill="#F0B90B" stroke="#F0B90B" stroke-width="0.0592733"/>
</g>
<defs>
<linearGradient id="paint0_linear_8_459" x1="122.682" y1="0.851074" x2="122.682" y2="20.8511" gradientUnits="userSpaceOnUse">
<stop stop-color="#4A819F"/>
<stop offset="1" stop-color="#034681"/>
</linearGradient>
<clipPath id="clip0_8_459">
<rect width="20" height="12.4928" fill="white" transform="translate(0.681885 4.07617)"/>
</clipPath>
<clipPath id="clip1_8_459">
<rect width="20" height="20" fill="white" transform="translate(28.6816 0.851074)"/>
</clipPath>
<clipPath id="clip2_8_459">
<rect width="20" height="20" fill="white" transform="translate(56.6816 0.851074)"/>
</clipPath>
<clipPath id="clip3_8_459">
<rect width="20" height="20" fill="white" transform="translate(84.6816 0.851074)"/>
</clipPath>
<clipPath id="clip4_8_459">
<rect width="20" height="20" fill="white" transform="translate(112.682 0.851074)"/>
</clipPath>
<clipPath id="clip5_8_459">
<rect width="19.9401" height="20" fill="white" transform="translate(140.682 0.851074)"/>
</clipPath>
</defs>
</svg>
