<svg width="161" height="21" viewBox="0 0 161 21" fill="none" xmlns="http://www.w3.org/2000/svg">
<g clip-path="url(#clip0_8_527)">
<path d="M10.6821 20.8511C16.205 20.8511 20.6821 16.3739 20.6821 10.8511C20.6821 5.32823 16.205 0.851074 10.6821 0.851074C5.15928 0.851074 0.682129 5.32823 0.682129 10.8511C0.682129 16.3739 5.15928 20.8511 10.6821 20.8511Z" fill="#26A17B"/>
<path d="M16.1478 8.51732C15.6484 8.16295 15.114 7.78482 14.5915 7.40982C14.5796 7.40107 14.5684 7.39232 14.554 7.38357C14.4928 7.3333 14.4235 7.29378 14.349 7.2667L14.3428 7.26357C12.9447 6.9205 11.547 6.57592 10.1496 6.22982L6.40963 5.3067L6.3115 5.28045C6.199 5.24857 6.069 5.21295 5.93025 5.23045C5.89225 5.23627 5.85598 5.25035 5.824 5.2717L5.789 5.30107C5.74518 5.34601 5.71169 5.39998 5.69088 5.4592L5.68213 5.48295V5.61732L5.68838 5.63795C6.47588 7.87857 7.28463 10.1517 8.06463 12.3511C8.66525 14.0448 9.28963 15.7986 9.89838 17.5211C9.93588 17.6379 10.0428 17.7148 10.1759 17.7261H10.2046C10.2628 17.7276 10.3203 17.7134 10.3711 17.685C10.4219 17.6566 10.4641 17.6151 10.4934 17.5648L12.7809 14.1817C13.3378 13.3586 13.8953 12.5329 14.4528 11.7098L15.1371 10.6961C15.5121 10.1398 15.8996 9.56545 16.284 9.00607L16.304 8.97732V8.9417C16.3128 8.8392 16.3153 8.6292 16.1478 8.51732ZM13.4678 9.75045C12.9303 10.0342 12.3821 10.3273 11.8303 10.6173L12.7953 9.56857C13.1965 9.1292 13.6153 8.67482 14.0253 8.22982L14.034 8.22107C14.0684 8.1742 14.1121 8.13045 14.1584 8.08357C14.1896 8.0517 14.2246 8.0192 14.2565 7.98107C14.4703 8.13107 14.6865 8.28295 14.8946 8.43232C15.0446 8.54045 15.1978 8.6492 15.354 8.75732C14.7231 9.08419 14.0943 9.41524 13.4678 9.75045ZM12.0878 9.60982C11.6746 10.0636 11.2471 10.5292 10.8228 10.9892C9.99914 9.97576 9.17309 8.9643 8.34463 7.95482L7.23275 6.59857L7.23025 6.59545C7.1465 6.4992 7.06525 6.39357 6.98463 6.2942C6.93275 6.2267 6.87775 6.16232 6.82275 6.09482C7.15775 6.18232 7.49588 6.26482 7.82775 6.34357C8.11963 6.4142 8.42275 6.48732 8.72025 6.56357L13.7484 7.80232C13.1909 8.40607 12.6303 9.01795 12.0878 9.60982ZM10.6346 15.3186C10.6665 15.0111 10.7015 14.6948 10.7303 14.3842C10.7565 14.1348 10.7821 13.8804 10.8084 13.6373C10.8484 13.2473 10.8921 12.8436 10.9271 12.4479L10.9353 12.3779C10.964 12.1254 10.9928 11.8654 11.0103 11.6042C11.0439 11.5852 11.0788 11.5685 11.1146 11.5542C11.1578 11.5342 11.2009 11.5167 11.244 11.4904C11.9111 11.1349 12.5792 10.7814 13.2484 10.4298C13.9159 10.0786 14.6003 9.71482 15.279 9.35482C14.6631 10.2594 14.0498 11.1656 13.439 12.0736C12.9221 12.8373 12.3909 13.6254 11.8621 14.4017C11.6546 14.7123 11.4378 15.0286 11.2328 15.3329C11.0015 15.6729 10.7646 16.0211 10.534 16.3704C10.5628 16.0186 10.5971 15.6642 10.6346 15.3186ZM6.60963 6.78607C6.57213 6.68045 6.53088 6.57232 6.4965 6.46982C7.2765 7.42482 8.0615 8.38545 8.82713 9.3167C9.22275 9.79982 9.61838 10.2804 10.014 10.7667C10.0921 10.8573 10.1703 10.9542 10.2453 11.0479C10.3434 11.1679 10.4415 11.2942 10.5484 11.4142C10.5134 11.7154 10.4846 12.0204 10.4528 12.3129C10.4328 12.5179 10.4128 12.7236 10.3896 12.9317V12.9342C10.3809 13.0654 10.3634 13.1979 10.349 13.3267L10.2828 13.9098L10.2796 13.9298C10.2278 14.5217 10.164 15.1192 10.1034 15.6992C10.0778 15.9392 10.0546 16.1854 10.0284 16.4317C10.014 16.3879 9.99713 16.3436 9.98213 16.3023C9.9381 16.1829 9.8958 16.0629 9.85525 15.9423L9.54588 15.0723L6.609 6.78607" fill="white"/>
</g>
<g clip-path="url(#clip1_8_527)">
<mask id="mask0_8_527" style="mask-type:luminance" maskUnits="userSpaceOnUse" x="28" y="4" width="21" height="13">
<path d="M48.6826 4.07617H28.6826V16.569H48.6826V4.07617Z" fill="white"/>
</mask>
<g mask="url(#mask0_8_527)">
<path fill-rule="evenodd" clip-rule="evenodd" d="M48.6433 15.9216C48.6433 16.2895 48.3429 16.59 47.9751 16.59H29.3274C28.9596 16.59 28.6592 16.2895 28.6592 15.9216V4.76537C28.6592 4.39742 28.9596 4.09692 29.3274 4.09692H47.9751C48.343 4.09692 48.6434 4.39742 48.6434 4.76537L48.6433 15.9216Z" fill="#14477C"/>
<path fill-rule="evenodd" clip-rule="evenodd" d="M41.0482 13.9276L41.2321 13.924L41.4163 13.9127L41.5964 13.8863L41.7729 13.8563L41.9456 13.8149L42.1182 13.7701L42.2834 13.7098L42.4487 13.6462L42.6061 13.5745L42.7601 13.4958L42.9104 13.4093L43.0569 13.3156L43.1995 13.2143L43.3347 13.1091L43.4622 12.9965L43.5896 12.8761L43.7062 12.7522L43.819 12.6208L43.9278 12.4855L44.0291 12.3468L44.1192 12.2003L44.2095 12.0502L44.2844 11.8962L44.3596 11.7348L44.4234 11.5732L44.4798 11.4043L44.5286 11.2352L44.5697 11.0626L44.6 10.8822L44.6225 10.7058L44.6373 10.5216L44.641 10.3379L44.6373 10.1537L44.6225 9.96966L44.6 9.79316L44.5697 9.61693L44.5286 9.44395L44.4798 9.27517L44.4234 9.10602L44.3596 8.94465L44.2844 8.78682L44.2095 8.63291L44.1192 8.48275L44.0291 8.33629L43.9278 8.19745L43.819 8.06224L43.7062 7.93086L43.5896 7.80693L43.4622 7.69045L43.3347 7.57781L43.1995 7.46904L43.0569 7.37126L42.9104 7.27732L42.7601 7.19112L42.6061 7.11207L42.4487 7.04074L42.2834 6.97711L42.1182 6.92069L41.9456 6.87192L41.7729 6.83061L41.5964 6.80059L41.4163 6.77802L41.2321 6.7629L41.0482 6.75928L40.8643 6.7629L40.6842 6.77802L40.5039 6.80059L40.3276 6.83061L40.1547 6.87192L39.9821 6.92069L39.8167 6.97711L39.6553 7.04074L39.4976 7.11207L39.3437 7.19112L39.1936 7.27732L39.0471 7.37126L38.9083 7.46904L38.7729 7.57781L38.6416 7.69045L38.5179 7.80693L38.3976 7.93086L38.2888 8.06224L38.1798 8.19745L38.0822 8.33629L37.9884 8.48275L37.9022 8.63291L37.8232 8.78682L37.7519 8.94465L37.688 9.10602L37.6318 9.27517L37.5831 9.44395L37.5415 9.61693L37.5118 9.79316L37.4891 9.96966L37.4741 10.1537L37.4702 10.3379L37.4741 10.5216L37.4891 10.7058L37.5118 10.8822L37.5415 11.0626L37.5831 11.2352L37.6318 11.4043L37.688 11.5732L37.7519 11.7348L37.8232 11.8962L37.9022 12.0502L37.9884 12.2003L38.0822 12.3468L38.1798 12.4855L38.2888 12.6208L38.3976 12.7522L38.5179 12.8761L38.6416 12.9965L38.7729 13.1091L38.9083 13.2143L39.0471 13.3156L39.1936 13.4093L39.3437 13.4958L39.4976 13.5745L39.6553 13.6462L39.8167 13.7098L39.9821 13.7701L40.1547 13.8149L40.3276 13.8563L40.5039 13.8863L40.6842 13.9127L40.8643 13.924L41.0482 13.9276Z" fill="#FBB230"/>
<path fill-rule="evenodd" clip-rule="evenodd" d="M36.2539 13.9276L36.4378 13.924L36.6179 13.9127L36.7983 13.8863L36.9745 13.8563L37.1474 13.8149L37.3203 13.7701L37.4853 13.7098L37.6466 13.6462L37.8044 13.5745L37.9583 13.4958L38.1084 13.4093L38.2548 13.3156L38.3936 13.2143L38.5291 13.1091L38.6605 12.9965L38.7841 12.8761L38.9044 12.7522L39.0134 12.6208L39.1222 12.4855L39.2197 12.3468L39.3136 12.2003L39.3998 12.0502L39.4788 11.8962L39.5501 11.7348L39.614 11.5732L39.6701 11.4043L39.7191 11.2352L39.7605 11.0626L39.7903 10.8822L39.8128 10.7058L39.828 10.5216L39.8318 10.3379L39.828 10.1537L39.8128 9.96966L39.7903 9.79316L39.7605 9.61693L39.7191 9.44395L39.6701 9.27517L39.614 9.10602L39.5501 8.94465L39.4788 8.78682L39.3998 8.63291L39.3136 8.48275L39.2197 8.33629L39.1222 8.19745L39.0134 8.06224L38.9044 7.93086L38.7841 7.80693L38.6605 7.69045L38.5291 7.57781L38.3936 7.46904L38.2548 7.37126L38.1084 7.27732L37.9583 7.19112L37.8044 7.11207L37.6466 7.04074L37.4853 6.97711L37.3203 6.92069L37.1474 6.87192L36.9745 6.83061L36.7983 6.80059L36.6179 6.77802L36.4378 6.7629L36.2539 6.75928L36.07 6.7629L35.8858 6.77802L35.7057 6.80059L35.5292 6.83061L35.3568 6.87192L35.1839 6.92069L35.0187 6.97711L34.8535 7.04074L34.6959 7.11207L34.5421 7.19112L34.3917 7.27732L34.2455 7.37126L34.1028 7.46904L33.9674 7.57781L33.8399 7.69045L33.7124 7.80693L33.5959 7.93086L33.483 8.06224L33.3743 8.19745L33.273 8.33629L33.1829 8.48275L33.0926 8.63291L33.0177 8.78682L32.9425 8.94465L32.8787 9.10602L32.8225 9.27517L32.7735 9.44395L32.7361 9.61693L32.7021 9.79316L32.6799 9.96966L32.6647 10.1537L32.6611 10.3379L32.6647 10.5216L32.6799 10.7058L32.7021 10.8822L32.7361 11.0626L32.7735 11.2352L32.8225 11.4043L32.8787 11.5732L32.9425 11.7348L33.0177 11.8962L33.0926 12.0502L33.1829 12.2003L33.273 12.3468L33.3743 12.4855L33.483 12.6208L33.5959 12.7522L33.7124 12.8761L33.8399 12.9965L33.9674 13.1091L34.1028 13.2143L34.2455 13.3156L34.3917 13.4093L34.5421 13.4958L34.6959 13.5745L34.8535 13.6462L35.0187 13.7098L35.1839 13.7701L35.3568 13.8149L35.5292 13.8563L35.7057 13.8863L35.8858 13.9127L36.07 13.924L36.2539 13.9276Z" fill="#EB2230"/>
<path fill-rule="evenodd" clip-rule="evenodd" d="M38.2324 8.13354H40.1361V7.93823H38.3976L38.2324 8.13354Z" fill="#FBB230"/>
<path fill-rule="evenodd" clip-rule="evenodd" d="M37.9478 8.56542H40.1367V8.37012H38.0604L37.9478 8.56542Z" fill="#FBB230"/>
<path fill-rule="evenodd" clip-rule="evenodd" d="M37.7334 8.99755H40.1363V8.80225H37.8198L37.7334 8.99755Z" fill="#FBB230"/>
<path fill-rule="evenodd" clip-rule="evenodd" d="M37.5869 9.42898H40.1363V9.23755H37.6469L37.5869 9.42898Z" fill="#FBB230"/>
<path fill-rule="evenodd" clip-rule="evenodd" d="M37.6726 11.5246H40.1431V11.3293H37.6128L37.6726 11.5246Z" fill="#FBB230"/>
<path fill-rule="evenodd" clip-rule="evenodd" d="M37.8532 11.9565H40.1434V11.7612H37.7632L37.8532 11.9565Z" fill="#FBB230"/>
<path fill-rule="evenodd" clip-rule="evenodd" d="M38.1122 12.3882H40.1433V12.1929H37.9883L38.1122 12.3882Z" fill="#FBB230"/>
<path fill-rule="evenodd" clip-rule="evenodd" d="M38.4656 12.8201H40.1437V12.6248H38.293L38.4656 12.8201Z" fill="#FBB230"/>
<path fill-rule="evenodd" clip-rule="evenodd" d="M37.5005 9.86104H40.136V9.66943H37.538L37.5005 9.86104Z" fill="#FBB230"/>
<path fill-rule="evenodd" clip-rule="evenodd" d="M39.1069 11.0927H40.1132V10.8975H39.1446L39.1069 11.0927Z" fill="#FBB230"/>
<path fill-rule="evenodd" clip-rule="evenodd" d="M39.186 10.6606H40.1135V10.4653H39.2237L39.186 10.6606Z" fill="#FBB230"/>
<path fill-rule="evenodd" clip-rule="evenodd" d="M37.4331 10.4653H37.6959V10.6606H37.4483L37.4331 10.4653Z" fill="#FBB230"/>
<path fill-rule="evenodd" clip-rule="evenodd" d="M44.2962 12.3579C44.3901 12.3579 44.4653 12.4366 44.4653 12.5267C44.4653 12.6207 44.3901 12.6958 44.2962 12.6958C44.2023 12.6958 44.1274 12.6207 44.1274 12.5267C44.1274 12.4366 44.2023 12.3579 44.2962 12.3579ZM44.2962 12.3879C44.3752 12.3879 44.4388 12.4518 44.4388 12.5267C44.4388 12.6058 44.3753 12.6696 44.2962 12.6696C44.2213 12.6696 44.1571 12.6058 44.1571 12.5267C44.1571 12.4518 44.2213 12.3879 44.2962 12.3879Z" fill="#FBB230"/>
<path d="M44.2324 12.6021V12.4595H44.2924C44.3073 12.4595 44.3186 12.4595 44.3262 12.4633C44.3335 12.4669 44.3375 12.4708 44.3411 12.4744C44.3447 12.4821 44.3485 12.4895 44.3485 12.497C44.3485 12.5082 44.3447 12.5195 44.3411 12.5234C44.3334 12.5308 44.3224 12.5347 44.3108 12.5382C44.3186 12.5421 44.3223 12.5459 44.3262 12.5495C44.3298 12.5533 44.3375 12.5608 44.3411 12.5721L44.3598 12.6021H44.3262L44.3034 12.5682C44.2994 12.557 44.2922 12.5534 44.2885 12.5496C44.2885 12.5459 44.2846 12.5459 44.281 12.5421C44.2772 12.5421 44.2733 12.5421 44.2659 12.5421H44.262V12.6021H44.2324ZM44.2622 12.5195H44.2811C44.296 12.5195 44.3035 12.5195 44.3073 12.5159C44.3109 12.5159 44.3151 12.5159 44.3151 12.512C44.3186 12.5082 44.3186 12.5046 44.3186 12.5007C44.3186 12.4969 44.3186 12.4933 44.3151 12.4895C44.3109 12.4855 44.3073 12.4855 44.3035 12.482C44.3035 12.482 44.296 12.482 44.2847 12.482H44.2622V12.5195H44.2622Z" fill="#FBB230"/>
<path fill-rule="evenodd" clip-rule="evenodd" d="M44.2581 10.9463C44.352 10.9463 44.4269 11.0214 44.4269 11.1154C44.4269 11.2093 44.352 11.2842 44.2581 11.2842C44.1643 11.2842 44.0894 11.2093 44.0894 11.1154C44.0894 11.0214 44.1643 10.9463 44.2581 10.9463ZM44.2581 10.9763C44.3371 10.9763 44.4008 11.0401 44.4008 11.1153C44.4008 11.1941 44.3372 11.258 44.2581 11.258C44.1792 11.258 44.1155 11.1941 44.1155 11.1153C44.1155 11.0402 44.1791 10.9763 44.2581 10.9763Z" fill="white"/>
<path d="M44.1943 11.1865V11.0474H44.2544C44.2695 11.0474 44.2808 11.0474 44.2883 11.0512C44.292 11.0512 44.2992 11.0587 44.3031 11.0625C44.3069 11.0699 44.3105 11.0774 44.3105 11.0851C44.3105 11.0964 44.3069 11.1038 44.2992 11.1112C44.2957 11.1187 44.2844 11.1225 44.2731 11.1264C44.277 11.1299 44.2844 11.1338 44.2883 11.1377C44.292 11.1412 44.2957 11.1487 44.3031 11.16L44.3221 11.1865H44.2882L44.2656 11.1564C44.2581 11.1451 44.2543 11.1377 44.2505 11.1377C44.2469 11.1338 44.2469 11.1299 44.2433 11.1299C44.2391 11.1299 44.2356 11.1299 44.2281 11.1299H44.2207V11.1864L44.1943 11.1865ZM44.2208 11.1077H44.2433C44.2582 11.1077 44.2656 11.1077 44.2695 11.1039C44.2731 11.1039 44.277 11.1 44.277 11.1C44.2808 11.0964 44.2808 11.0925 44.2808 11.0887C44.2808 11.0851 44.277 11.0774 44.277 11.0774C44.2731 11.0738 44.2695 11.0699 44.2657 11.0699C44.2619 11.0699 44.2544 11.0699 44.2433 11.0699H44.2208L44.2208 11.1077Z" fill="white"/>
<path fill-rule="evenodd" clip-rule="evenodd" d="M41.8447 11.2125L42.0887 9.93604H42.3927L42.4304 10.0674C42.4866 10.0109 42.5804 9.93604 42.7682 9.93604L42.6744 10.274C42.5918 10.274 42.464 10.2588 42.3591 10.5066C42.2803 10.6945 42.2426 11.006 42.2013 11.2125H41.8447Z" fill="white"/>
<path fill-rule="evenodd" clip-rule="evenodd" d="M37.2414 9.61694H37.579L37.504 9.95483H37.6918L37.6354 10.2176H37.4666L37.3727 10.7246C37.354 10.8186 37.3727 10.9125 37.5605 10.8747L37.5231 11.1565C37.3204 11.3104 36.9146 11.1978 36.9784 10.8186L37.2414 9.61694Z" fill="white"/>
<path fill-rule="evenodd" clip-rule="evenodd" d="M38.7472 10.6493C38.7847 10.4428 38.8786 9.93604 38.2742 9.93604C37.7112 9.93604 37.636 10.4992 37.636 10.5741C37.6175 10.6493 37.6175 11.2125 38.218 11.2125C38.3681 11.2125 38.5784 11.1938 38.6723 11.1563L38.7285 10.8933C38.6723 10.9123 38.4807 10.931 38.3306 10.931C38.1993 10.931 37.9741 10.931 38.0115 10.6493L38.7472 10.6493Z" fill="white"/>
<path fill-rule="evenodd" clip-rule="evenodd" d="M34.651 11.2126L34.9514 9.6731H34.3657L33.9526 10.6119L33.8775 9.6731H33.3331L33.0327 11.2126H33.3706L33.5961 10.105L33.69 11.2126H34.0091L34.497 10.1237L34.2905 11.2126H34.651Z" fill="white"/>
<path fill-rule="evenodd" clip-rule="evenodd" d="M35.0447 9.97356L34.9884 10.2553C35.0824 10.2553 35.3075 10.2176 35.4201 10.2176C35.5328 10.2176 35.6829 10.1989 35.6267 10.3867C35.5328 10.3867 34.9132 10.2928 34.8193 10.8373C34.767 11.1977 35.1949 11.3292 35.4576 11.1565L35.4953 11.2314H35.8142L35.9457 10.5368C36.0846 9.90966 35.4802 9.89837 35.0447 9.97356Z" fill="white"/>
<path fill-rule="evenodd" clip-rule="evenodd" d="M40.6352 10.0863C40.5488 10.0336 40.4962 10.0336 40.3874 10.0336C40.2823 10.0336 40.0344 10.1389 40.0006 10.4204C39.948 10.7734 40.1771 10.9312 40.5111 10.826L40.6014 11.1265C40.0308 11.4118 39.4861 10.9687 39.6665 10.2777C39.8127 9.75578 40.5037 9.44046 40.8492 9.87227L40.6352 10.0863Z" fill="white"/>
<path fill-rule="evenodd" clip-rule="evenodd" d="M43.6123 10.0864C42.6924 9.39538 42.3356 11.2128 43.049 11.2128C43.1616 11.2128 43.2745 11.1566 43.3494 11.1189L43.3868 11.2128H43.7624L44.0629 9.59814H43.7061L43.6123 10.0864Z" fill="white"/>
<path fill-rule="evenodd" clip-rule="evenodd" d="M40.9055 9.97356L40.8493 10.2553C40.9429 10.2553 41.1684 10.2176 41.2808 10.2176C41.3937 10.2176 41.525 10.1989 41.4875 10.3867C41.3937 10.3867 40.7742 10.2928 40.6805 10.8373C40.6425 11.1 40.868 11.2314 41.0371 11.2314C41.2058 11.2314 41.2622 11.194 41.3185 11.1565L41.3559 11.2314H41.6753L41.8066 10.5368C41.9494 9.90966 41.3447 9.89837 40.9055 9.97356Z" fill="white"/>
<path fill-rule="evenodd" clip-rule="evenodd" d="M38.0112 10.4055H38.443C38.4917 10.0637 38.0825 10.1314 38.0112 10.4055Z" fill="#EB2230"/>
<path fill-rule="evenodd" clip-rule="evenodd" d="M35.571 10.6495C35.5146 10.6495 35.3832 10.612 35.2703 10.6872C35.158 10.7621 35.1203 10.8935 35.2518 10.9312C35.3642 10.9686 35.5146 10.8935 35.552 10.7808L35.571 10.6495Z" fill="#EB2230"/>
<path fill-rule="evenodd" clip-rule="evenodd" d="M43.4437 10.2929C43.3311 10.1425 43.0872 10.2555 43.012 10.5369C42.9558 10.7247 43.0684 10.8561 43.181 10.8561C43.4176 10.8561 43.5602 10.4694 43.4437 10.2929Z" fill="#FBB230"/>
<path fill-rule="evenodd" clip-rule="evenodd" d="M41.4506 10.6495C41.3945 10.6495 41.2631 10.612 41.1502 10.6872C41.0379 10.7621 41.0002 10.8935 41.1318 10.9312C41.2441 10.9686 41.4133 10.8935 41.4319 10.7808L41.4506 10.6495Z" fill="#FBB230"/>
<path fill-rule="evenodd" clip-rule="evenodd" d="M38.7471 11.2314L38.7661 11.1L38.9913 9.95483H39.2915L39.3289 10.0862C39.3854 10.0298 39.4793 9.95483 39.667 9.95483L39.5731 10.2928C39.5018 10.2928 39.3515 10.2776 39.2389 10.5781C39.175 10.7508 39.1375 11.0438 39.1037 11.2314H38.7471Z" fill="white"/>
<path fill-rule="evenodd" clip-rule="evenodd" d="M36.93 10.2629H36.9148H36.9L36.8852 10.2591L36.87 10.2555H36.8549L36.84 10.2516C36.7723 10.2442 36.7161 10.2403 36.6487 10.2442C36.4758 10.259 36.4009 10.3678 36.5471 10.4504C36.6636 10.5182 36.7538 10.5068 36.8323 10.5821C37.0014 10.7396 36.915 11.0439 36.7272 11.1602L36.6936 11.1753L36.6561 11.1904L36.6148 11.2014L36.5774 11.2127C36.3971 11.2427 36.1531 11.2353 35.9766 11.1753L36.0253 10.9235C36.168 10.9536 36.4009 11.0175 36.5097 10.9426C36.6336 10.8599 36.521 10.7622 36.4307 10.7209L36.3858 10.706L36.3409 10.6873C35.9841 10.5256 36.0669 10.0937 36.4045 10.0037C36.5397 9.97369 36.6749 9.97369 36.8139 9.98498H36.8401C36.874 9.98859 36.904 9.99249 36.934 9.99988H36.9489L36.9602 10.0037H36.9715L36.9789 10.0076H36.9901L36.93 10.2629Z" fill="white"/>
</g>
</g>
<g clip-path="url(#clip2_8_527)">
<path d="M66.6819 20.8511C72.2047 20.8511 76.6819 16.3739 76.6819 10.8511C76.6819 5.32823 72.2047 0.851074 66.6819 0.851074C61.159 0.851074 56.6819 5.32823 56.6819 10.8511C56.6819 16.3739 61.159 20.8511 66.6819 20.8511Z" fill="#EB0029"/>
<path fill-rule="evenodd" clip-rule="evenodd" d="M62.1609 6.20896C62.2525 6.45252 66.1201 16.1544 66.1292 16.1636C66.1397 16.1741 71.6679 9.46829 71.6819 9.42815C71.6888 9.40807 69.7604 7.57813 69.7096 7.55657C69.6882 7.54751 67.9913 7.23252 65.9387 6.8566C63.8861 6.48068 62.1921 6.16974 62.1743 6.16565C62.1467 6.15931 62.1447 6.16582 62.1609 6.20896ZM66.3003 7.45723C67.7881 7.73004 69.0053 7.95909 69.0053 7.96623C69.0053 7.97942 66.9879 9.65854 66.9249 9.69781C66.8955 9.71615 66.6585 9.52727 65.243 8.35712C63.3688 6.80779 63.5533 6.96234 63.577 6.96168C63.5871 6.96141 64.8126 7.1844 66.3003 7.45723ZM64.9395 8.78726C66.1594 9.79734 66.6651 10.2272 66.6602 10.2499C66.6565 10.2675 66.5354 11.2648 66.3912 12.4661C66.247 13.6675 66.1248 14.6632 66.1196 14.6789C66.1144 14.6945 65.4545 13.0621 64.6532 11.0513C63.8519 9.04043 63.1914 7.38318 63.1854 7.36851C63.1795 7.35382 63.183 7.34517 63.1932 7.34926C63.2035 7.35334 63.9894 8.00045 64.9395 8.78726ZM70.1881 8.71642C70.5031 9.01445 70.7575 9.26154 70.7535 9.26557C70.7409 9.2782 67.6662 9.83054 67.6386 9.82515C67.6151 9.82057 69.5747 8.17459 69.6036 8.17459C69.6101 8.17459 69.8731 8.41842 70.1881 8.71642ZM70.6422 9.86812C70.5522 9.9991 66.6611 14.7089 66.6575 14.6913C66.655 14.6794 66.7681 13.7214 66.9088 12.5624L67.1645 10.4551L68.8709 10.1441C69.8093 9.97312 70.5978 9.8324 70.6229 9.83142C70.6647 9.82977 70.6664 9.83296 70.6422 9.86812Z" fill="white"/>
</g>
<g clip-path="url(#clip3_8_527)">
<path d="M94.6819 20.8511C100.205 20.8511 104.682 16.3739 104.682 10.8511C104.682 5.32824 100.205 0.851074 94.6819 0.851074C89.1591 0.851074 84.6819 5.32824 84.6819 10.8511C84.6819 16.3739 89.1591 20.8511 94.6819 20.8511Z" fill="#8DC351"/>
<path d="M99.3651 9.1576C98.8918 8.9176 98.3218 8.8676 97.6618 9.01093C98.2318 8.2676 98.2518 7.45426 97.7218 6.5776C97.5318 6.2576 97.3018 6.01093 97.0285 5.84093C96.7551 5.6676 96.4551 5.57093 96.1185 5.5476C95.7851 5.52426 95.4418 5.5476 95.0985 5.61426C94.7518 5.68426 94.3718 5.79426 93.9551 5.95093L93.0418 4.0376L91.8718 4.59426L92.7585 6.45426C92.5551 6.55093 92.2485 6.70426 91.8385 6.91093L90.9451 5.03426L89.7751 5.59093L90.6885 7.50426C90.5251 7.5876 90.2785 7.7076 89.9551 7.86426L88.3418 8.62426L88.9351 9.87093L89.7785 9.4676C90.1618 9.28426 90.4718 9.3476 90.7018 9.66093L91.7418 11.8409C91.7918 11.8176 91.8351 11.8009 91.8685 11.7909L91.7485 11.8476L93.2051 14.9009C93.2885 15.1776 93.2018 15.3776 92.9485 15.4976L92.1051 15.9009L92.5318 17.4043L94.0518 16.6809C94.1485 16.6343 94.2885 16.5709 94.4718 16.4843C94.6551 16.4009 94.7918 16.3376 94.8851 16.2909L95.8085 18.2276L96.9785 17.6709L96.0651 15.7576C96.2818 15.6609 96.5918 15.5176 96.9951 15.3243L97.9051 17.2309L99.0751 16.6743L98.1518 14.7376C98.5585 14.5209 98.9085 14.3043 99.2018 14.0976C99.4951 13.8876 99.7618 13.6543 99.9985 13.3943C100.235 13.1343 100.408 12.8709 100.522 12.5976C100.635 12.3276 100.692 12.0243 100.688 11.6876C100.688 11.3543 100.618 10.9976 100.482 10.6209C100.212 9.88426 99.8418 9.39426 99.3651 9.1576ZM92.5185 8.26426C92.5551 8.2476 92.6518 8.1976 92.8151 8.1176C92.9785 8.0376 93.1151 7.9676 93.2218 7.91426C93.3285 7.86093 93.4785 7.7976 93.6718 7.72426C93.8651 7.65093 94.0285 7.5976 94.1685 7.56093C94.3085 7.52426 94.4651 7.50093 94.6451 7.4876C94.8251 7.47426 94.9785 7.4876 95.1118 7.5276C95.2418 7.5676 95.3718 7.6376 95.4951 7.7376C95.6185 7.8376 95.7218 7.97093 95.8018 8.1376C95.8685 8.28093 95.9085 8.42093 95.9185 8.5576C95.9285 8.69426 95.9051 8.82426 95.8518 8.9476C95.7985 9.07093 95.7385 9.18426 95.6685 9.2876C95.5985 9.39093 95.4985 9.4976 95.3685 9.60426C95.2351 9.71093 95.1185 9.80093 95.0185 9.87426C94.9151 9.9476 94.7851 10.0276 94.6218 10.1143C94.4585 10.2009 94.3351 10.2676 94.2485 10.3109C94.1651 10.3543 94.0451 10.4109 93.8951 10.4809C93.7451 10.5509 93.6551 10.5909 93.6318 10.6009L92.5185 8.26426ZM98.1785 11.9143C98.1851 12.0543 98.1718 12.1843 98.1385 12.3076C98.1018 12.4309 98.0385 12.5543 97.9485 12.6776C97.8551 12.8043 97.7618 12.9143 97.6651 13.0076C97.5685 13.1043 97.4451 13.2076 97.2951 13.3143C97.1451 13.4243 97.0118 13.5143 96.8918 13.5843C96.7751 13.6576 96.6318 13.7376 96.4618 13.8276C96.2918 13.9176 96.1618 13.9843 96.0651 14.0309C95.9685 14.0776 95.8451 14.1343 95.6985 14.2009C95.5518 14.2676 95.4551 14.3109 95.4151 14.3309L94.1918 11.7643C94.2318 11.7443 94.3518 11.6843 94.5485 11.5843C94.7451 11.4843 94.9085 11.4043 95.0351 11.3443C95.1618 11.2843 95.3385 11.2076 95.5685 11.1176C95.7985 11.0276 95.9951 10.9609 96.1618 10.9176C96.3285 10.8743 96.5151 10.8443 96.7251 10.8209C96.9351 10.7976 97.1185 10.8076 97.2718 10.8443C97.4251 10.8809 97.5751 10.9543 97.7185 11.0609C97.8618 11.1676 97.9785 11.3109 98.0651 11.4909C98.1351 11.6343 98.1718 11.7743 98.1785 11.9143Z" fill="white"/>
</g>
<g clip-path="url(#clip4_8_527)">
<path d="M122.651 0.893066L125.111 3.41218L118.917 9.60625L116.457 7.1464L122.651 0.893066Z" fill="#F0B90B" stroke="#F0B90B" stroke-width="0.0592733"/>
<path d="M126.385 4.62744L128.845 7.14656L118.917 17.0748L116.457 14.615L126.385 4.62744Z" fill="#F0B90B" stroke="#F0B90B" stroke-width="0.0592733"/>
<path d="M115.183 8.36182L117.643 10.8809L115.183 13.3408L112.723 10.8809L115.183 8.36182Z" fill="#F0B90B" stroke="#F0B90B" stroke-width="0.0592733"/>
<path d="M130.119 8.36182L132.579 10.8809L122.651 20.8092L120.191 18.3494L130.119 8.36182Z" fill="#F0B90B" stroke="#F0B90B" stroke-width="0.0592733"/>
</g>
<g clip-path="url(#clip5_8_527)">
<path d="M150.622 20.8511C156.145 20.8511 160.622 16.3739 160.622 10.8511C160.622 5.32824 156.145 0.851074 150.622 0.851074C145.099 0.851074 140.622 5.32824 140.622 10.8511C140.622 16.3739 145.099 20.8511 150.622 20.8511Z" fill="url(#paint0_linear_8_527)"/>
<path d="M150.622 12.971L146.785 11.1477L150.622 17.851L154.458 11.1477L150.622 12.971Z" fill="white"/>
<path d="M154.039 9.78774L150.622 3.85107L147.199 9.79441L150.622 8.17107L154.039 9.78774Z" fill="white"/>
<path d="M147.495 10.5644L150.622 12.0444L153.752 10.5611L150.622 9.08105L147.495 10.5644Z" fill="white"/>
</g>
<defs>
<linearGradient id="paint0_linear_8_527" x1="150.622" y1="0.851074" x2="150.622" y2="20.8511" gradientUnits="userSpaceOnUse">
<stop stop-color="#4A819F"/>
<stop offset="1" stop-color="#034681"/>
</linearGradient>
<clipPath id="clip0_8_527">
<rect width="20" height="20" fill="white" transform="translate(0.681641 0.851074)"/>
</clipPath>
<clipPath id="clip1_8_527">
<rect width="20" height="12.4928" fill="white" transform="translate(28.6819 4.07617)"/>
</clipPath>
<clipPath id="clip2_8_527">
<rect width="20" height="20" fill="white" transform="translate(56.6816 0.851074)"/>
</clipPath>
<clipPath id="clip3_8_527">
<rect width="20" height="20" fill="white" transform="translate(84.6816 0.851074)"/>
</clipPath>
<clipPath id="clip4_8_527">
<rect width="19.9401" height="20" fill="white" transform="translate(112.682 0.851074)"/>
</clipPath>
<clipPath id="clip5_8_527">
<rect width="20" height="20" fill="white" transform="translate(140.622 0.851074)"/>
</clipPath>
</defs>
</svg>
