<svg width="25" height="24" viewBox="0 0 25 24" fill="none" xmlns="http://www.w3.org/2000/svg">
<g clip-path="url(#clip0_8_425)">
<path d="M10.4517 5C10.4517 4.46957 10.6624 3.96086 11.0374 3.58579C11.4125 3.21071 11.9212 3 12.4517 3C12.9821 3 13.4908 3.21071 13.8659 3.58579C14.2409 3.96086 14.4517 4.46957 14.4517 5C15.6001 5.54303 16.5791 6.38833 17.2837 7.4453C17.9884 8.50227 18.3921 9.73107 18.4517 11V14C18.5269 14.6217 18.7471 15.2171 19.0945 15.7381C19.4419 16.2592 19.9067 16.6914 20.4517 17H4.45166C4.9966 16.6914 5.46147 16.2592 5.80885 15.7381C6.15623 15.2171 6.3764 14.6217 6.45166 14V11C6.51122 9.73107 6.91496 8.50227 7.61961 7.4453C8.32426 6.38833 9.30325 5.54303 10.4517 5" stroke="#F3F5FF" stroke-width="1.5" stroke-linecap="round" stroke-linejoin="round"/>
<path d="M9.45166 17V18C9.45166 18.7956 9.76773 19.5587 10.3303 20.1213C10.8929 20.6839 11.656 21 12.4517 21C13.2473 21 14.0104 20.6839 14.573 20.1213C15.1356 19.5587 15.4517 18.7956 15.4517 18V17" stroke="#F3F5FF" stroke-width="1.5" stroke-linecap="round" stroke-linejoin="round"/>
</g>
<defs>
<clipPath id="clip0_8_425">
<rect width="24" height="24" fill="white" transform="translate(0.45166)"/>
</clipPath>
</defs>
</svg>
