<svg width="40" height="40" viewBox="0 0 40 40" fill="none" xmlns="http://www.w3.org/2000/svg">
<rect width="40" height="40" rx="20" fill="#F7F7F7"/>
<path d="M11.6667 24.9384C11.6667 24.4323 11.7957 23.9345 12.0415 23.492L17.1964 14.2132C17.6533 13.3907 18.4484 12.8103 19.371 12.6258V12.6258C19.7862 12.5428 20.2138 12.5428 20.629 12.6258V12.6258C21.5516 12.8103 22.3467 13.3907 22.8036 14.2132L27.9586 23.492C28.2044 23.9345 28.3334 24.4323 28.3334 24.9384V24.9384C28.3334 26.5833 26.9999 27.9167 25.3551 27.9167H14.6449C13.0001 27.9167 11.6667 26.5833 11.6667 24.9384V24.9384Z" stroke="#F23152" stroke-width="1.5"/>
<path d="M20 17.4999L20 20.8333" stroke="#F23152" stroke-width="1.5" stroke-linecap="round" stroke-linejoin="round"/>
<path d="M20 23.3333L20 23.75" stroke="#F23152" stroke-width="1.5" stroke-linecap="round" stroke-linejoin="round"/>
</svg>
