<svg width="40" height="40" viewBox="0 0 40 40" fill="none" xmlns="http://www.w3.org/2000/svg">
<rect width="40" height="40" rx="20" fill="#F7F7F7"/>
<g clip-path="url(#clip0_1_1187)">
<path d="M18.3333 14.1667C18.3333 13.7246 18.5089 13.3007 18.8215 12.9882C19.134 12.6756 19.558 12.5 20 12.5C20.442 12.5 20.8659 12.6756 21.1785 12.9882C21.4911 13.3007 21.6666 13.7246 21.6666 14.1667C22.6237 14.6192 23.4395 15.3236 24.0267 16.2044C24.6139 17.0852 24.9503 18.1092 25 19.1667V21.6667C25.0627 22.1848 25.2462 22.6809 25.5357 23.1151C25.8251 23.5493 26.2125 23.9095 26.6666 24.1667H13.3333C13.7874 23.9095 14.1748 23.5493 14.4643 23.1151C14.7538 22.6809 14.9373 22.1848 15 21.6667V19.1667C15.0496 18.1092 15.3861 17.0852 15.9733 16.2044C16.5605 15.3236 17.3763 14.6192 18.3333 14.1667" stroke="#1D1D1F" stroke-width="1.5" stroke-linecap="round" stroke-linejoin="round"/>
<path d="M17.5 24.1667V25.0001C17.5 25.6631 17.7634 26.299 18.2322 26.7678C18.7011 27.2367 19.337 27.5001 20 27.5001C20.663 27.5001 21.2989 27.2367 21.7678 26.7678C22.2366 26.299 22.5 25.6631 22.5 25.0001V24.1667" stroke="#1D1D1F" stroke-width="1.5" stroke-linecap="round" stroke-linejoin="round"/>
</g>
<defs>
<clipPath id="clip0_1_1187">
<rect width="20" height="20" fill="white" transform="translate(10 10)"/>
</clipPath>
</defs>
</svg>
