<svg width="49" height="48" viewBox="0 0 49 48" fill="none" xmlns="http://www.w3.org/2000/svg">
<rect x="0.681641" width="48" height="48" rx="24" fill="#F7F7F7"/>
<g clip-path="url(#clip0_8_442)">
<path d="M24.6816 23C26.8908 23 28.6816 21.2091 28.6816 19C28.6816 16.7909 26.8908 15 24.6816 15C22.4725 15 20.6816 16.7909 20.6816 19C20.6816 21.2091 22.4725 23 24.6816 23Z" stroke="#939199" stroke-width="1.5" stroke-linecap="round" stroke-linejoin="round"/>
<path d="M18.6816 33V31C18.6816 29.9391 19.1031 28.9217 19.8532 28.1716C20.6034 27.4214 21.6208 27 22.6816 27H26.6816C27.7425 27 28.7599 27.4214 29.5101 28.1716C30.2602 28.9217 30.6816 29.9391 30.6816 31V33" stroke="#939199" stroke-width="1.5" stroke-linecap="round" stroke-linejoin="round"/>
</g>
<defs>
<clipPath id="clip0_8_442">
<rect width="24" height="24" fill="white" transform="translate(12.6816 12)"/>
</clipPath>
</defs>
</svg>
