<svg width="49" height="48" viewBox="0 0 49 48" fill="none" xmlns="http://www.w3.org/2000/svg">
<rect x="0.681641" width="48" height="48" rx="24" fill="#F7F7F7"/>
<path fill-rule="evenodd" clip-rule="evenodd" d="M22.8612 20.3604C22.8612 19.589 23.5163 19.2923 24.6013 19.2923C26.1572 19.2923 28.1226 19.7473 29.6785 20.5582V15.9099C27.9793 15.2571 26.3005 15 24.6013 15C20.4454 15 17.6816 17.0967 17.6816 20.5978C17.6816 26.0571 25.4612 25.1868 25.4612 27.5407C25.4612 28.4505 24.6423 28.7473 23.4958 28.7473C21.7966 28.7473 19.6265 28.0747 17.9068 27.1648V31.8725C19.8108 32.6637 21.7352 33 23.4958 33C27.7541 33 30.6816 30.9626 30.6816 27.422C30.6612 21.5275 22.8612 22.5758 22.8612 20.3604Z" fill="#635BFF"/>
</svg>
